<svg xmlns="http://www.w3.org/2000/svg" width="154" height="130">
  <g fill="none" fill-rule="evenodd">
    <path fill="#F8F8F8" d="M45.05 125.15c15.96-3.99 27.49-4.62 34.6-1.89 10.67 4.1 44.77 11.81 55.14 1.89 6.92-6.62 8.16-21.25 3.71-43.9-1.22-4.64-1.22-10.26 0-16.86 1.83-9.89 3.86-52.09-14.06-60.74-11.94-5.77-24.04-4.7-36.3 3.2-10.1 7.1-18.38 8.33-24.85 3.72-9.7-6.92-28.53-15.77-42.77 0-14.25 15.77 0 37.6 0 41.7 0 4.1 1.56 16.9-9.83 25.07-11.39 8.18-9.83 28.24 0 38.02 6.55 6.53 18 9.79 34.36 9.79z"/>
    <path fill="#212529" fill-rule="nonzero" d="M21.86 91.26V80.7h4.36v-6.6h-4.36V45.98H11.8L0 73.93v6.77h13.76v10.56h8.1zm-8.1-17.16H6.81l6.93-19.24V74.1zM149.6 91.26V80.7h4.36v-6.6h-4.36V45.98h-10.06l-11.8 27.96v6.77h13.76v10.56h8.1zm-6-17.16h-6.94l6.93-19.24V74.1zM111.53 5.84H59.38c-.4 0-.79.14-1.1.39L41.63 19.94c-.4.33-.62.81-.62 1.32v76.92c0 .95.77 1.72 1.72 1.72h68.8c.95 0 1.72-.77 1.72-1.72V7.55c0-.95-.77-1.71-1.72-1.71z"/>
    <path fill="#F8F8F8" fill-rule="nonzero" d="M109.81 9.27v87.2H44.45v-74.4l15.54-12.8z"/>
    <path fill="#212529" fill-rule="nonzero" stroke="#212529" stroke-width="2" d="M59.53 28.15l6.77 6.74c.07.08.18.11.29.08a.3.3 0 00.21-.2.3.3 0 00-.08-.3l-6.77-6.74a.3.3 0 00-.5.13.3.3 0 00.08.29zm6.77-.42l-6.77 6.74a.3.3 0 00.13.5c.1.03.22 0 .3-.07l6.76-6.75a.3.3 0 10-.42-.42zm17.8-.07l6.77 6.74c.07.08.18.11.29.09a.3.3 0 00.13-.5l-6.76-6.75a.3.3 0 10-.43.42zm6.77-.42l-6.77 6.74a.3.3 0 00.13.5c.1.03.22 0 .3-.07l6.76-6.75a.3.3 0 00-.13-.5.3.3 0 00-.3.08z"/>
    <path fill="#212529" fill-rule="nonzero" d="M58.79 23.75l2.83-17.8-20.9 16.41 18.07 1.4zm-1.26-10.84l-1.23 7.7-7.82-.6 9.05-7.1z"/>
    <path fill="#F6FFFE" fill-rule="nonzero" d="M57.53 12.9l-1.23 7.71-7.82-.6z"/>
    <path fill="#212529" fill-rule="nonzero" d="M77.13 49.87c5.98 0 11.72 2.28 17.21 6.82l.28.23-1.27 1.5c-5.23-4.4-10.63-6.6-16.22-6.6-5.5 0-11.05 2.13-16.65 6.4l-.3.22-1.2-1.55c6.02-4.67 12.08-7.02 18.15-7.02z"/>
    <path fill="#F6FFFE" fill-rule="nonzero" d="M73.76 51.97c.28 1.45-.07 4.4-.98 7.14l-.2.58-.14.37c-1.18 3.05-2.78 4.95-4.26 4.95-1.67 0-3.2-1.58-4.29-4.21a15.07 15.07 0 01-.95-3.28c-.07-.44-.1-.83-.1-1.1l.01-.11.16-.12c2.79-2.03 5.86-3.19 10.26-4.12l.5-.1z"/>
    <path fill="#212529" fill-rule="nonzero" d="M75.24 50.35l-.35-.6-1.02.2-.67.13-.65.14-.63.14c-4.28.98-7.4 2.24-10.29 4.4l-.28.22-.07.08c-.5.56-.48 1.95-.13 3.56l.07.32c.09.37.2.75.32 1.13l.1.33.06.17.12.32.12.33.13.33c1.37 3.28 3.43 5.42 6.1 5.42 2.61 0 4.74-2.54 6.19-6.42l.14-.4.15-.42c1.24-3.75 1.57-7.75.6-9.38zm-1.48 1.62c.28 1.45-.07 4.4-.98 7.14l-.2.58-.14.37c-1.18 3.05-2.78 4.95-4.26 4.95-1.67 0-3.2-1.58-4.29-4.21a15.07 15.07 0 01-.95-3.28c-.07-.44-.1-.83-.1-1.1l.01-.11.16-.12c2.79-2.03 5.86-3.19 10.26-4.12l.5-.1z"/>
    <path fill="#212529" fill-rule="nonzero" d="M67.55 52.3c.54 0 1 .42 1.04.96V58.75a1.05 1.05 0 01-2.09.1v-5.5c0-.57.47-1.04 1.05-1.04z"/>
    <path fill="#d31c2e" d="M34.61 64.47l89.54 12.58-4.63 33-89.55-12.6z"/>
    <path fill="#FFF" fill-rule="nonzero" d="M63.16 90.25l.19-1.32-4.02-.56.33-2.37 3.32.47.19-1.32-3.33-.47.3-2.06 4.02.56.18-1.31-5.43-.77-1.18 8.39 5.43.76zm2.81.4l.42-2.93 2 .28 1 3.13 1.6.22-1.1-3.4.07-.02c.33-.1.6-.26.84-.48l.08-.08a3 3 0 00.77-1.7c.07-.45.05-.89-.05-1.28-.1-.4-.3-.75-.58-1.05-.28-.29-.66-.5-1.14-.65l-.35-.09a7.18 7.18 0 00-.31-.05l-3.48-.49-1.17 8.39 1.4.2zm2.6-3.96l-2-.28.4-2.83 2 .28a4.4 4.4 0 01.53.13c.22.09.4.22.5.38.12.17.2.35.22.55a1.93 1.93 0 01-.15 1.1c-.08.17-.2.33-.36.45-.15.13-.35.2-.6.23a3.3 3.3 0 01-.54-.02zm5.11 5.04l.42-2.93 2 .28 1 3.13 1.6.22-1.1-3.4.07-.01c.33-.1.6-.26.84-.49l.08-.08a3 3 0 00.77-1.69c.07-.46.05-.9-.05-1.3s-.3-.74-.58-1.03c-.28-.3-.66-.51-1.14-.65a7.18 7.18 0 00-.66-.14l-3.48-.5-1.17 8.39 1.4.2zm2.6-3.96l-2-.28.4-2.83 2 .28a4.4 4.4 0 01.53.13c.23.09.4.22.5.39.12.16.2.34.22.54a1.93 1.93 0 01-.15 1.1c-.08.18-.2.33-.36.46-.15.13-.35.2-.6.23a3.36 3.36 0 01-.54-.02zm7.24 5.52a4.1 4.1 0 002.24-.25 3.64 3.64 0 001.6-1.34c.41-.6.68-1.35.8-2.21.12-.87.07-1.65-.16-2.35a3.65 3.65 0 00-1.17-1.73 4.12 4.12 0 00-2.08-.85 4.1 4.1 0 00-2.24.24c-.65.28-1.18.73-1.6 1.34a5.18 5.18 0 00-.8 2.22c-.12.86-.07 1.65.16 2.35.23.7.62 1.27 1.17 1.72a4.1 4.1 0 002.08.86zm.19-1.32a2.57 2.57 0 01-1.36-.6c-.34-.3-.57-.69-.7-1.17a4.23 4.23 0 01-.05-1.63c.08-.62.25-1.14.5-1.57.26-.43.6-.75 1-.95.41-.2.9-.26 1.46-.17.56.08 1.02.28 1.36.59.34.3.57.7.7 1.17.12.48.14 1.03.05 1.64a4.24 4.24 0 01-.5 1.57c-.26.43-.6.74-1 .94-.41.2-.9.26-1.46.18zm6.44 2.07l.4-2.93 2 .28 1.02 3.13 1.6.23-1.12-3.4.09-.02c.32-.1.6-.26.83-.48l.09-.09a3 3 0 00.76-1.69c.07-.46.05-.89-.05-1.29s-.3-.75-.57-1.04c-.29-.29-.67-.5-1.14-.65-.1-.04-.23-.06-.35-.09a7.18 7.18 0 00-.32-.05l-3.47-.49-1.18 8.38 1.4.2zm2.6-3.95l-2-.29.39-2.83 2 .29a4.37 4.37 0 01.53.12c.23.1.4.22.51.39.11.17.19.35.22.54a1.93 1.93 0 01-.16 1.1c-.08.18-.2.33-.36.46-.15.13-.35.2-.59.23a3.28 3.28 0 01-.54-.02z"/>
    <g fill="#212529" transform="translate(109.85 56.27)">
      <path fill-rule="nonzero" d="M1.34.65c11.23 9.58 13.5 20.71 6.75 33.1l-.2.38-1.73-.96c6.48-11.6 4.58-21.75-5.78-30.76l-.32-.27L1.34.65z"/>
      <ellipse cx="5.12" cy="35.06" rx="4.42" ry="4.41"/>
    </g>
    <g fill="#212529" transform="matrix(-1 0 0 1 44.41 56.27)">
      <path fill-rule="nonzero" d="M1.34.65c11.23 9.58 13.5 20.71 6.75 33.1l-.2.38-1.73-.96c6.48-11.6 4.58-21.75-5.78-30.76l-.32-.27L1.34.65z"/>
      <ellipse cx="5.12" cy="35.06" rx="4.42" ry="4.41"/>
    </g>
  </g>
</svg>
