<svg version="1.2" xmlns="http://www.w3.org/2000/svg" viewBox="0 0 486 486" width="486" height="486">
	<title>link-svg</title>
	<style>
		.s0 { fill: #ffffff } 
	</style>
	<g id="Layer">
		<path id="Layer" class="s0" d="m194.5 418.2c-34.9 34.9-91.8 34.9-126.7 0-34.9-34.9-34.9-91.8 0-126.7l79.2-79.2c33.2-33.2 86.4-35.1 121.6-4.8 4.6 3.9 6.7 10 5.6 15.9-1.1 5.9-5.3 10.8-10.9 12.8-5.7 2-12 0.8-16.6-3.1-22.1-19-54.9-18.1-76 3l-79.2 79.2c-22.1 22.1-22.1 57 0 79.2 22.2 22.1 57.1 22.1 79.2 0l75.3-75.3c3.1-3.2 7.4-5 11.9-5 4.5-0.1 8.8 1.7 12 4.9 3.1 3.2 4.9 7.5 4.9 12 0 4.5-1.9 8.8-5.1 11.9zm142.6-142.6c-33.3 33.3-86.5 35.1-121.7 4.9-3.4-2.9-5.5-7.1-5.9-11.5-0.3-4.5 1.1-8.9 4-12.3 2.9-3.4 7.1-5.5 11.6-5.9 4.4-0.3 8.8 1.1 12.2 4.1 22.2 19 54.9 18.1 76-3l79.2-79.2c22.2-22.2 22.2-57.1 0-79.2-22.1-22.1-57-22.1-79.2 0l-75.2 75.2c-3.2 3.3-7.5 5.1-11.9 5.1-4.5 0-8.9-1.7-12-4.9-3.2-3.2-5-7.5-5-12 0.1-4.5 1.9-8.8 5.1-11.9l75.3-75.3c34.8-34.9 91.8-34.9 126.7 0 34.9 34.9 34.9 91.9 0 126.7z"/>
		<g id="u">
			<path id="Layer" class="s0" d="m-19.2 606.9q-1.5 0.7-3.1 1.1-1.5 0.4-3.2 0.4-5.1 0-8.1-2.9-3-2.8-3-7.7 0-4.9 3-7.7 3-2.9 8.1-2.9 1.7 0 3.2 0.4 1.6 0.4 3.1 1.1v4.3q-1.5-1-2.9-1.5-1.4-0.5-3-0.5-2.8 0-4.4 1.8-1.7 1.8-1.7 5 0 3.2 1.7 5 1.6 1.8 4.4 1.8 1.6 0 3-0.5 1.4-0.4 2.9-1.4z"/>
		</g>
		<g id="d">
			<path id="Layer" class="s0" d="m-3.7 596.9q-0.7-0.3-1.3-0.5-0.6-0.1-1.3-0.1-1.9 0-2.9 1.2-1 1.2-1 3.4v7.1h-4.9v-15.3h4.9v2.5q0.9-1.5 2.2-2.2 1.2-0.7 2.9-0.7 0.2 0 0.5 0 0.3 0.1 0.9 0.1z"/>
		</g>
		<g id="b">
			<path id="Layer" fill-rule="evenodd" class="s0" d="m14 600.3v1.4h-11.5q0.2 1.7 1.3 2.6 1.1 0.8 3 0.8 1.5 0 3.1-0.4 1.7-0.5 3.4-1.4v3.8q-1.8 0.6-3.5 0.9-1.7 0.4-3.5 0.4-4.1 0-6.4-2.1-2.3-2.1-2.3-5.9 0-3.8 2.2-5.9 2.3-2.2 6.2-2.2 3.7 0 5.8 2.2 2.2 2.2 2.2 5.8zm-5-1.6q0-1.4-0.8-2.3-0.9-0.8-2.2-0.8-1.4 0-2.3 0.8-0.9 0.8-1.1 2.3z"/>
		</g>
		<g id="l">
			<path id="Layer" fill-rule="evenodd" class="s0" d="m32 599.3v8.7h-4.9v-2.3q-1 1.4-2.2 2.1-1.2 0.6-3 0.6-2.4 0-3.9-1.4-1.5-1.4-1.4-3.6-0.1-2.7 1.8-3.9 1.9-1.3 5.8-1.3h2.9v-0.4q0-1.1-0.9-1.7-0.9-0.5-2.9-0.5-1.5 0-2.9 0.3-1.4 0.3-2.5 0.9v-3.7q1.6-0.4 3.1-0.6 1.6-0.2 3.2-0.2 4.2 0 6 1.7 1.8 1.6 1.8 5.3zm-7.4 1.8q-1.6 0-2.3 0.5-0.8 0.5-0.8 1.6 0 0.9 0.6 1.4 0.6 0.5 1.7 0.5 1.4 0 2.4-0.9 0.9-1 0.9-2.5v-0.6z"/>
		</g>
		<g id="a">
			<path id="Layer" class="s0" d="m41.9 588.3v4.4h5.1v3.5h-5.1v6.5q0 1.1 0.5 1.4 0.4 0.4 1.6 0.4h2.6v3.5h-4.2q-2.9 0-4.2-1.2-1.2-1.2-1.2-4.1v-6.5h-2.4v-3.5h2.4v-4.4z"/>
		</g>
		<g id="b">
			<path id="Layer" fill-rule="evenodd" class="s0" d="m65.3 600.3v1.4h-11.5q0.2 1.7 1.3 2.6 1 0.8 3 0.8 1.5 0 3.1-0.4 1.6-0.5 3.3-1.4v3.8q-1.7 0.6-3.4 0.9-1.8 0.4-3.5 0.4-4.2 0-6.5-2.1-2.3-2.1-2.3-5.9 0-3.8 2.3-5.9 2.3-2.2 6.2-2.2 3.6 0 5.8 2.2 2.2 2.2 2.2 5.8zm-5.1-1.6q0-1.4-0.8-2.3-0.8-0.8-2.1-0.8-1.4 0-2.3 0.8-0.9 0.8-1.1 2.3z"/>
		</g>
		<g id="g">
			<path id="Layer" fill-rule="evenodd" class="s0" d="m79.4 594.9v-8.2h4.9v21.3h-4.9v-2.2q-1 1.3-2.2 2-1.3 0.6-2.9 0.6-2.8 0-4.6-2.3-1.8-2.2-1.8-5.7 0-3.6 1.8-5.8 1.8-2.3 4.6-2.3 1.6 0 2.8 0.7 1.3 0.6 2.3 1.9zm-3.2 9.9q1.5 0 2.4-1.1 0.8-1.1 0.8-3.3 0-2.2-0.8-3.4-0.9-1.1-2.4-1.1-1.6 0-2.4 1.1-0.9 1.2-0.9 3.4 0 2.1 0.9 3.3 0.8 1.1 2.4 1.1z"/>
		</g>
		<g id="k">
			<path id="Layer" fill-rule="evenodd" class="s0" d="m103.7 594.9q1-1.3 2.2-1.9 1.2-0.7 2.8-0.7 2.9 0 4.7 2.3 1.8 2.2 1.8 5.8 0 3.5-1.8 5.7-1.8 2.3-4.7 2.3-1.6 0-2.8-0.6-1.2-0.7-2.2-2v2.2h-4.9v-21.3h4.9zm3.2 9.9q1.6 0 2.4-1.1 0.8-1.2 0.8-3.3 0-2.2-0.8-3.4-0.8-1.1-2.4-1.1-1.6 0-2.4 1.1-0.8 1.2-0.8 3.4 0 2.1 0.8 3.3 0.8 1.1 2.4 1.1z"/>
		</g>
		<g id="j">
			<path id="Layer" class="s0" d="m116.8 592.7h4.9l4.1 10.4 3.5-10.4h4.9l-6.4 16.8q-1 2.5-2.3 3.5-1.3 1-3.4 1h-2.9v-3.2h1.6q1.2 0 1.8-0.4 0.6-0.4 0.9-1.4l0.1-0.4z"/>
		</g>
		<g id="i">
			<path id="Layer" class="s0" d="m147 587.6h5.3v7.4l7.6-7.4h6.1l-9.8 9.7 10.8 10.7h-6.6l-8.1-8v8h-5.3z"/>
		</g>
		<g id="f">
			<path id="Layer" class="s0" d="m168.5 592.7h4.9v15.3h-4.9zm0-6h4.9v4h-4.9z"/>
		</g>
		<g id="e">
			<path id="Layer" class="s0" d="m192.3 595.2q0.9-1.4 2.2-2.1 1.3-0.8 2.8-0.8 2.6 0 4 1.7 1.4 1.6 1.4 4.7v9.3h-4.9v-8-0.3q0-0.2 0-0.6 0-1.6-0.5-2.4-0.4-0.7-1.5-0.7-1.4 0-2.2 1.2-0.7 1.1-0.7 3.3v7.5h-5v-8q0-2.5-0.4-3.3-0.4-0.7-1.6-0.7-1.4 0-2.1 1.2-0.8 1.1-0.8 3.3v7.5h-4.9v-15.3h4.9v2.2q0.9-1.3 2.1-1.9 1.1-0.7 2.5-0.7 1.6 0 2.8 0.8 1.3 0.7 1.9 2.1z"/>
		</g>
		<g id="e">
			<path id="Layer" class="s0" d="m221.5 595.2q0.9-1.4 2.2-2.1 1.2-0.8 2.8-0.8 2.6 0 4 1.7 1.4 1.6 1.4 4.7v9.3h-4.9v-8-0.3q0-0.2 0-0.6 0-1.6-0.5-2.4-0.5-0.7-1.5-0.7-1.4 0-2.2 1.2-0.8 1.1-0.8 3.3v7.5h-4.9v-8q0-2.5-0.4-3.3-0.5-0.7-1.6-0.7-1.4 0-2.2 1.2-0.7 1.1-0.7 3.3v7.5h-4.9v-15.3h4.9v2.2q0.9-1.3 2-1.9 1.2-0.7 2.6-0.7 1.6 0 2.8 0.8 1.2 0.7 1.9 2.1z"/>
		</g>
		<g id="f">
			<path id="Layer" class="s0" d="m236.5 592.7h4.8v15.3h-4.8zm0-6h4.8v4h-4.8z"/>
		</g>
		<g id="t">
			<path id="Layer" class="s0" d="m270.2 588.2v4.3q-1.7-0.7-3.3-1.1-1.6-0.4-3-0.4-1.9 0-2.8 0.6-0.9 0.5-0.9 1.6 0 0.8 0.6 1.3 0.6 0.4 2.2 0.7l2.3 0.5q3.4 0.7 4.8 2.1 1.5 1.4 1.5 3.9 0 3.4-2 5-2 1.7-6.2 1.7-1.9 0-3.9-0.4-1.9-0.3-3.9-1.1v-4.4q2 1 3.8 1.6 1.8 0.5 3.5 0.5 1.8 0 2.7-0.6 0.9-0.6 0.9-1.6 0-1-0.6-1.5-0.7-0.5-2.5-0.9l-2-0.5q-3.1-0.6-4.5-2.1-1.4-1.4-1.4-3.9 0-3 1.9-4.6 2-1.7 5.7-1.7 1.7 0 3.4 0.3 1.8 0.2 3.7 0.7z"/>
		</g>
		<g id="a">
			<path id="Layer" class="s0" d="m281.3 588.3v4.4h5.1v3.5h-5.1v6.5q0 1.1 0.4 1.4 0.5 0.4 1.7 0.4h2.5v3.5h-4.2q-2.9 0-4.1-1.2-1.2-1.2-1.2-4.1v-6.5h-2.4v-3.5h2.4v-4.4z"/>
		</g>
		<g id="h">
			<path id="Layer" class="s0" d="m289.2 602v-9.3h4.9v1.5q0 1.3 0 3.1 0 1.9 0 2.5 0 1.9 0.1 2.7 0.1 0.8 0.3 1.2 0.3 0.5 0.8 0.7 0.5 0.3 1.1 0.3 1.5 0 2.4-1.2 0.9-1.2 0.9-3.3v-7.5h4.9v15.3h-4.9v-2.2q-1.1 1.3-2.4 2-1.2 0.6-2.7 0.6-2.6 0-4-1.6-1.4-1.7-1.4-4.8z"/>
		</g>
		<g id="g">
			<path id="Layer" fill-rule="evenodd" class="s0" d="m319.7 594.9v-8.2h4.9v21.3h-4.9v-2.2q-1 1.3-2.2 2-1.2 0.6-2.9 0.6-2.8 0-4.6-2.3-1.8-2.2-1.8-5.7 0-3.6 1.8-5.8 1.8-2.3 4.6-2.3 1.6 0 2.9 0.7 1.2 0.6 2.2 1.9zm-3.2 9.9q1.5 0 2.4-1.1 0.8-1.1 0.8-3.3 0-2.2-0.8-3.4-0.9-1.1-2.4-1.1-1.6 0-2.4 1.1-0.8 1.2-0.8 3.4 0 2.1 0.8 3.3 0.8 1.1 2.4 1.1z"/>
		</g>
		<g id="f">
			<path id="Layer" class="s0" d="m329.3 592.7h4.9v15.3h-4.9zm0-6h4.9v4h-4.9z"/>
		</g>
		<g id="c">
			<path id="Layer" fill-rule="evenodd" class="s0" d="m346.2 592.3q4 0 6.2 2.2 2.2 2.1 2.2 5.9 0 3.7-2.2 5.9-2.2 2.1-6.2 2.1-4 0-6.2-2.1-2.2-2.2-2.2-5.9 0-3.8 2.2-5.9 2.2-2.2 6.2-2.2zm0 3.5q-1.6 0-2.5 1.2-0.8 1.2-0.8 3.4 0 2.2 0.8 3.3 0.9 1.2 2.5 1.2 1.6 0 2.4-1.2 0.9-1.1 0.9-3.3 0-2.2-0.9-3.4-0.8-1.2-2.4-1.2z"/>
		</g>
		<g id="s">
			<path id="Layer" class="s0" d="m-25.6 614.7v3.2h-2.7q-1 0-1.4 0.4-0.4 0.4-0.4 1.3v1.1h4.1v3.5h-4.1v11.8h-4.9v-11.8h-2.5v-3.5h2.5v-1.1q0-2.5 1.4-3.7 1.3-1.2 4.3-1.2z"/>
		</g>
		<g id="d">
			<path id="Layer" class="s0" d="m-12.1 624.9q-0.6-0.3-1.3-0.5-0.6-0.1-1.2-0.1-1.9 0-3 1.2-1 1.2-1 3.4v7.1h-4.9v-15.3h4.9v2.5q1-1.5 2.2-2.2 1.2-0.7 2.9-0.7 0.3 0 0.6 0 0.3 0.1 0.8 0.1z"/>
		</g>
		<g id="c">
			<path id="Layer" fill-rule="evenodd" class="s0" d="m-2.4 620.3q4 0 6.2 2.2 2.2 2.1 2.2 5.9 0 3.7-2.2 5.9-2.2 2.1-6.2 2.1-3.9 0-6.2-2.1-2.2-2.2-2.2-5.9 0-3.8 2.2-5.9 2.3-2.2 6.2-2.2zm0 3.5q-1.6 0-2.5 1.2-0.8 1.2-0.8 3.4 0 2.2 0.8 3.3 0.9 1.2 2.5 1.2 1.6 0 2.5-1.2 0.8-1.1 0.8-3.3 0-2.2-0.8-3.4-0.9-1.2-2.5-1.2z"/>
		</g>
		<g id="e">
			<path id="Layer" class="s0" d="m23.8 623.2q0.9-1.4 2.2-2.1 1.3-0.8 2.8-0.8 2.6 0 4 1.7 1.4 1.6 1.4 4.7v9.3h-4.9v-8-0.3q0-0.2 0-0.6 0-1.6-0.5-2.4-0.5-0.7-1.5-0.7-1.4 0-2.2 1.2-0.8 1.1-0.8 3.3v7.5h-4.9v-8q0-2.5-0.4-3.3-0.5-0.7-1.6-0.7-1.4 0-2.2 1.2-0.7 1.1-0.7 3.3v7.5h-4.9v-15.3h4.9v2.2q0.9-1.3 2-1.9 1.2-0.7 2.6-0.7 1.6 0 2.8 0.8 1.2 0.7 1.9 2.1z"/>
		</g>
		<g id="a">
			<path id="Layer" class="s0" d="m53.9 616.3v4.4h5v3.5h-5v6.5q0 1.1 0.4 1.4 0.4 0.4 1.6 0.4h2.6v3.5h-4.2q-2.9 0-4.1-1.2-1.3-1.2-1.3-4.1v-6.5h-2.4v-3.5h2.4v-4.4z"/>
		</g>
		<g id="r">
			<path id="Layer" class="s0" d="m77.3 626.7v9.3h-4.9v-7.1q0-2-0.1-2.8-0.1-0.7-0.3-1.1-0.3-0.5-0.8-0.7-0.5-0.3-1.1-0.3-1.6 0-2.4 1.2-0.9 1.2-0.9 3.3v7.5h-4.9v-21.3h4.9v8.2q1.1-1.3 2.3-1.9 1.3-0.7 2.8-0.7 2.6 0 4 1.7 1.4 1.6 1.4 4.7z"/>
		</g>
		<g id="b">
			<path id="Layer" fill-rule="evenodd" class="s0" d="m97.1 628.3v1.4h-11.4q0.1 1.7 1.2 2.6 1.1 0.8 3 0.8 1.5 0 3.1-0.4 1.7-0.5 3.4-1.4v3.8q-1.8 0.6-3.5 0.9-1.7 0.4-3.5 0.4-4.1 0-6.4-2.1-2.3-2.1-2.3-5.9 0-3.8 2.2-5.9 2.3-2.2 6.3-2.2 3.6 0 5.7 2.2 2.2 2.2 2.2 5.8zm-5-1.6q0-1.4-0.8-2.3-0.8-0.8-2.2-0.8-1.4 0-2.3 0.8-0.9 0.8-1.1 2.3z"/>
		</g>
		<g id="q">
			<path id="Layer" class="s0" d="m110.8 615.6h5.9l7.4 14v-14h5v20.4h-5.9l-7.4-14v14h-5z"/>
		</g>
		<g id="c">
			<path id="Layer" fill-rule="evenodd" class="s0" d="m141.3 620.3q3.9 0 6.2 2.2 2.2 2.1 2.2 5.9 0 3.7-2.2 5.9-2.3 2.1-6.2 2.1-4 0-6.2-2.1-2.3-2.2-2.3-5.9 0-3.8 2.3-5.9 2.2-2.2 6.2-2.2zm0 3.5q-1.6 0-2.5 1.2-0.9 1.2-0.9 3.4 0 2.2 0.9 3.3 0.9 1.2 2.5 1.2 1.6 0 2.4-1.2 0.9-1.1 0.9-3.3 0-2.2-0.9-3.4-0.8-1.2-2.4-1.2z"/>
		</g>
		<g id="h">
			<path id="Layer" class="s0" d="m153.1 630v-9.3h4.9v1.5q0 1.3 0 3.1 0 1.9 0 2.5 0 1.9 0.1 2.7 0.1 0.8 0.3 1.2 0.3 0.5 0.8 0.7 0.5 0.3 1.1 0.3 1.5 0 2.4-1.2 0.9-1.2 0.9-3.3v-7.5h4.9v15.3h-4.9v-2.2q-1.1 1.3-2.4 2-1.2 0.6-2.7 0.6-2.7 0-4-1.6-1.4-1.7-1.4-4.8z"/>
		</g>
		<g id="p">
			<path id="Layer" class="s0" d="m188.6 626.7v9.3h-5v-7.1q0-2-0.1-2.8 0-0.7-0.3-1.1-0.2-0.5-0.7-0.7-0.5-0.3-1.2-0.3-1.5 0-2.4 1.2-0.8 1.2-0.8 3.3v7.5h-4.9v-15.3h4.9v2.2q1.1-1.3 2.3-1.9 1.3-0.7 2.8-0.7 2.6 0 4 1.7 1.4 1.6 1.4 4.7z"/>
		</g>
		<g id="o">
			<path id="Layer" fill-rule="evenodd" class="s0" d="m203.1 615.6h8.7q3.9 0 6 1.7 2.1 1.8 2.1 5 0 3.2-2.1 4.9-2.1 1.7-6 1.7h-3.5v7.1h-5.2zm5.2 3.8v5.7h2.9q1.6 0 2.4-0.7 0.8-0.8 0.8-2.1 0-1.4-0.8-2.2-0.8-0.7-2.4-0.7z"/>
		</g>
		<g id="d">
			<path id="Layer" class="s0" d="m234.7 624.9q-0.6-0.3-1.2-0.5-0.7-0.1-1.3-0.1-1.9 0-2.9 1.2-1 1.2-1 3.4v7.1h-4.9v-15.3h4.9v2.5q0.9-1.5 2.1-2.2 1.3-0.7 3-0.7 0.2 0 0.5 0 0.3 0.1 0.8 0.1z"/>
		</g>
		<g id="c">
			<path id="Layer" fill-rule="evenodd" class="s0" d="m244.5 620.3q3.9 0 6.1 2.2 2.2 2.1 2.3 5.9-0.1 3.7-2.3 5.9-2.2 2.1-6.1 2.1-4 0-6.2-2.1-2.3-2.2-2.3-5.9 0-3.8 2.3-5.9 2.2-2.2 6.2-2.2zm0 3.5q-1.7 0-2.5 1.2-0.9 1.2-0.9 3.4 0 2.2 0.9 3.3 0.8 1.2 2.5 1.2 1.6 0 2.4-1.2 0.9-1.1 0.9-3.3 0-2.2-0.9-3.4-0.8-1.2-2.4-1.2z"/>
		</g>
		<g id="n">
			<path id="Layer" class="s0" d="m256.4 620.7h4.9v15q0 3.1-1.5 4.7-1.4 1.6-4.3 1.6h-2.4v-3.2h0.9q1.4 0 1.9-0.6 0.5-0.6 0.5-2.5zm0-5.9h4.9v4h-4.9z"/>
		</g>
		<g id="b">
			<path id="Layer" fill-rule="evenodd" class="s0" d="m281.3 628.3v1.4h-11.5q0.2 1.7 1.3 2.6 1.1 0.8 3 0.8 1.5 0 3.1-0.4 1.7-0.5 3.4-1.4v3.8q-1.8 0.6-3.5 0.9-1.7 0.4-3.5 0.4-4.1 0-6.4-2.1-2.3-2.1-2.3-5.9 0-3.8 2.2-5.9 2.3-2.2 6.2-2.2 3.7 0 5.8 2.2 2.2 2.2 2.2 5.8zm-5-1.6q0-1.4-0.8-2.3-0.9-0.8-2.2-0.8-1.4 0-2.3 0.8-0.9 0.8-1.1 2.3z"/>
		</g>
		<g id="m">
			<path id="Layer" class="s0" d="m297.4 621.2v4q-1-0.7-2-1.1-1-0.3-2.1-0.3-2.1 0-3.2 1.2-1.2 1.2-1.2 3.4 0 2.1 1.2 3.3 1.1 1.2 3.2 1.2 1.1 0 2.2-0.3 1-0.4 1.9-1.1v4q-1.2 0.5-2.4 0.7-1.1 0.2-2.3 0.2-4.2 0-6.5-2.1-2.4-2.2-2.3-5.9-0.1-3.8 2.3-6 2.3-2.1 6.5-2.1 1.2 0 2.3 0.2 1.2 0.2 2.4 0.7z"/>
		</g>
		<g id="a">
			<path id="Layer" class="s0" d="m306.9 616.3v4.4h5.1v3.5h-5.1v6.5q0 1.1 0.5 1.4 0.4 0.4 1.6 0.4h2.6v3.5h-4.2q-2.9 0-4.2-1.2-1.2-1.2-1.2-4.1v-6.5h-2.4v-3.5h2.4v-4.4z"/>
		</g>
	</g>
</svg>